<svg width="27" height="27" viewBox="0 0 27 27" fill="none" xmlns="http://www.w3.org/2000/svg">
<rect x="0.5" y="0.5" width="26" height="26" rx="7.5" fill="#C46A2B"/>
<rect x="0.5" y="0.5" width="26" height="26" rx="7.5" stroke="#DEE2EB"/>
<path fill-rule="evenodd" clip-rule="evenodd" d="M7.66669 8.66667C7.66669 8.48986 7.73693 8.32029 7.86195 8.19526C7.98697 8.07024 8.15654 8 8.33335 8H9.33335C9.48655 8 9.63508 8.05276 9.75395 8.1494C9.87281 8.24605 9.95477 8.38069 9.98602 8.53067L10.2927 10H17.6667C17.7658 10 17.8636 10.0221 17.9531 10.0647C18.0426 10.1072 18.1214 10.1692 18.184 10.2461C18.2465 10.323 18.2911 10.4128 18.3145 10.5091C18.3379 10.6054 18.3396 10.7057 18.3194 10.8027L17.486 14.8027C17.4548 14.9526 17.3728 15.0873 17.2539 15.1839C17.1351 15.2806 16.9866 15.3333 16.8334 15.3333H11.4034L11.542 16H16.3334C16.7579 16.0002 17.1713 16.1355 17.5138 16.3863C17.8563 16.6371 18.1102 16.9903 18.2386 17.3949C18.367 17.7996 18.3634 18.2345 18.2282 18.6369C18.093 19.0393 17.8333 19.3883 17.4866 19.6333C17.1399 19.8783 16.7243 20.0066 16.2998 19.9997C15.8754 19.9928 15.4641 19.8511 15.1256 19.5949C14.7871 19.3388 14.5388 18.9816 14.4167 18.575C14.2947 18.1684 14.3052 17.7336 14.4467 17.3333H12.8867C13.0165 17.7011 13.0359 18.0989 12.9425 18.4775C12.8491 18.8562 12.6471 19.1994 12.3612 19.4647C12.0754 19.73 11.7182 19.906 11.3336 19.9709C10.949 20.0358 10.5538 19.9869 10.1967 19.8301C9.83956 19.6733 9.53607 19.4155 9.32357 19.0885C9.11107 18.7614 8.99883 18.3794 9.00067 17.9894C9.00251 17.5993 9.11835 17.2184 9.33393 16.8933C9.54952 16.5683 9.85543 16.3134 10.214 16.16L8.79069 9.33333H8.33335C8.15654 9.33333 7.98697 9.2631 7.86195 9.13807C7.73693 9.01305 7.66669 8.84348 7.66669 8.66667Z" fill="#DEE2EB"/>
</svg>
